/vscmnt/brussel_pixiu_data/_data_brussel/112/vsc11236/PredSimResults/SUBJ07opt3D/weighted-trackIG/worker_01.mot
version=1
nRows=6
nColumns=50
inDegrees=yes
endheader
                time	         pelvis_tilt	         pelvis_list	     pelvis_rotation	           pelvis_tx	           pelvis_ty	           pelvis_tz	       hip_flexion_r	     hip_adduction_r	      hip_rotation_r	        knee_angle_r	       ankle_angle_r	         mtp_angle_r	       hip_flexion_l	     hip_adduction_l	      hip_rotation_l	        knee_angle_l	       ankle_angle_l	         mtp_angle_l	    lumbar_extension	      lumbar_bending	     lumbar_rotation	 ercspn_r/activation	 intobl_r/activation	 extobl_r/activation	    abd_r/activation	    add_r/activation	hamstrings_r/activation	bifemsh_r/activation	glut_max_r/activation	iliopsoas_r/activation	rect_fem_r/activation	  vasti_r/activation	gastroc_r/activation	 soleus_r/activation	tib_ant_r/activation	 ercspn_l/activation	 intobl_l/activation	 extobl_l/activation	    abd_l/activation	    add_l/activation	hamstrings_l/activation	bifemsh_l/activation	glut_max_l/activation	iliopsoas_l/activation	rect_fem_l/activation	  vasti_l/activation	gastroc_l/activation	 soleus_l/activation	tib_ant_l/activation	
          0.00000000	         -4.15478910	         -0.31328570	          8.67119890	          0.00000000	          0.84746698	         -0.01266892	         30.56270556	         -2.34662412	         -5.10899265	         -7.44410565	          2.62324431	          0.27765476	        -15.11605784	         -0.31468040	          4.31017127	         -8.74787712	          7.57876175	         29.01628046	        -11.47954821	         -1.25051727	         -1.64436785	          0.12190374	          0.13199034	          0.01000000	          0.01209217	          0.16178274	          0.08555459	          0.11166211	          0.09654019	          0.03991402	          0.01000003	          0.00999999	          0.01000000	          0.00999999	          0.41582067	          0.11718643	          0.00999999	          0.00999999	          0.03183818	          0.03798470	          0.01850921	          0.15566543	          0.01938199	          0.30897800	          0.01179912	          0.01179912	          0.15091723	          0.30502525	          0.01741603	
          0.01079475	         -4.15081148	         -0.28440478	          8.71804197	          0.01614773	          0.84584658	         -0.01231843	         30.42571324	         -2.14062989	         -4.75804546	         -9.12770471	          2.25739650	          0.25656397	        -15.58255477	         -0.41570452	          3.99318695	         -9.84008261	          6.60381792	         30.58249240	        -11.35178175	         -0.87469304	         -1.83056545	          0.10331592	          0.12716564	          0.00999999	          0.01024836	          0.14060008	          0.07710134	          0.11999344	          0.15028787	          0.03382795	          0.00999999	          0.00999999	          0.01392193	          0.01179911	          0.46009283	          0.13651382	          0.00999999	          0.01000000	          0.02698351	          0.05841530	          0.01568701	          0.13192964	          0.01642664	          0.26186519	          0.01000000	          0.00999999	          0.12790543	          0.28519052	          0.01476045	
          0.02158950	         -4.14131665	         -0.24611365	          8.71262180	          0.03241351	          0.84443799	         -0.01189321	         30.18119093	         -1.98180460	         -4.40972349	        -10.65866676	          1.81889417	          0.24897336	        -15.86097317	         -0.48666644	          3.62637754	        -11.29037600	          5.53401248	         32.08711907	        -11.22606578	         -0.50631297	         -2.00590688	          0.13537851	          0.10777548	          0.00999999	          0.09550343	          0.15757119	          0.06881147	          0.10828119	          0.15123562	          0.02866988	          0.00999999	          0.00999999	          0.01179912	          0.00999999	          0.53860604	          0.15649222	          0.00999999	          0.00999999	          0.02286907	          0.04950818	          0.01329521	          0.11181307	          0.01392191	          0.22193613	          0.01000001	          0.00999999	          0.10840247	          0.26273023	          0.01250978	
          0.03238426	         -4.12770873	         -0.18716403	          8.65789737	          0.04861563	          0.84339406	         -0.01137533	         29.91527874	         -1.84022928	         -4.12686883	        -12.13595487	          1.35357476	          0.22773873	        -15.88915621	         -0.51761750	          3.22307251	        -13.17365892	          4.33578053	         33.46405508	        -11.12126360	         -0.15932376	         -2.16918285	          0.15147950	          0.09134192	          0.00999999	          0.14900829	          0.17767565	          0.05887891	          0.09177052	          0.18236995	          0.02429831	          0.00999999	          0.00999999	          0.01000000	          0.00999999	          0.56596810	          0.19416390	          0.00999999	          0.00999999	          0.01938201	          0.05339464	          0.01357060	          0.09476387	          0.01179910	          0.18809542	          0.01000000	          0.00999999	          0.09187331	          0.22900787	          0.01060229	
          0.04317901	         -4.11014455	         -0.11559561	          8.55896602	          0.06460413	          0.84285948	         -0.01077701	         29.70146645	         -1.70815634	         -3.89487959	        -13.73370198	          1.16100405	          0.20431084	        -15.60673198	         -0.51777076	          2.79062823	        -15.56747172	          3.01912987	         34.54810174	        -11.04637289	          0.17490554	         -2.31768428	          0.16007943	          0.07741415	          0.00999999	          0.19221608	          0.20168698	          0.05044066	          0.07777740	          0.20888107	          0.02059332	          0.00999999	          0.02439527	          0.00999999	          0.00999999	          0.55804004	          0.23727895	          0.00999999	          0.00999999	          0.01642665	          0.07194173	          0.01473999	          0.08031432	          0.00999999	          0.15941471	          0.01000000	          0.00999999	          0.07786451	          0.19408886	          0.00999999	
          0.05397376	         -4.08973227	         -0.03589151	          8.41704471	          0.08026249	          0.84297198	         -0.01011168	         29.54598967	         -1.58354611	         -3.71310425	        -15.45048927	          1.30590867	          0.18220232	        -14.95568509	         -0.49272965	          2.32744982	        -18.54438386	          1.59539684	         35.11028534	        -11.00573385	          0.49889003	         -2.44848274	          0.17121283	          0.06561007	          0.00999999	          0.21250481	          0.22533897	          0.04619095	          0.06591793	          0.22074223	          0.01745326	          0.00999999	          0.05017305	          0.00999999	          0.00999999	          0.52250760	          0.26380103	          0.00999999	          0.00999999	          0.01392192	          0.10449795	          0.01573154	          0.06806804	          0.00999999	          0.13510723	          0.01000000	          0.00999999	          0.06599176	          0.16449427	          0.00999999	
